<svg fill="none" viewBox="0 0 16 16" xmlns="http://www.w3.org/2000/svg"><rect x="2" y="5" width="12" height="9" rx="2" fill="black"/><path d="M4 5V4a4 4 0 1 1 8 0v1" stroke="black" stroke-width="2" fill="none"/><path d="M8 7.5c.7 0 1.5.2 2 .7.5.5.7 1.3.7 2 0 .7-.2 1.5-.7 2-.5.5-1.3.7-2 .7-.7 0-1.5-.2-2-.7-.5-.5-.7-1.3-.7-2 0-.7.2-1.5.7-2 .5-.5 1.3-.7 2-.7zm0 1c-.4 0-.8.1-1.1.4-.3.3-.4.7-.4 1.1 0 .4.1.8.4 1.1.3.3.7.4 1.1.4.4 0 .8-.1 1.1-.4.3-.3.4-.7.4-1.1 0-.4-.1-.8-.4-1.1-.3-.3-.7-.4-1.1-.4z" fill="white"/></svg> 